<svg width="3125" height="2267" xmlns="http://www.w3.org/2000/svg" xmlns:xlink="http://www.w3.org/1999/xlink" xml:space="preserve" overflow="hidden"><defs><clipPath id="clip0"><rect x="-1" y="-1" width="3125" height="2267"/></clipPath><clipPath id="clip1"><rect x="0" y="0" width="3122" height="2263"/></clipPath><clipPath id="clip2"><rect x="0" y="0" width="3122" height="2263"/></clipPath><clipPath id="clip3"><rect x="0" y="0" width="3122" height="2263"/></clipPath><clipPath id="clip4"><rect x="0" y="0" width="3122" height="2263"/></clipPath><clipPath id="clip5"><rect x="0" y="0" width="3122" height="2263"/></clipPath><clipPath id="clip6"><rect x="353" y="169" width="2677" height="1891"/></clipPath><clipPath id="clip7"><rect x="0" y="0" width="3122" height="2263"/></clipPath><clipPath id="clip8"><rect x="0" y="0" width="3122" height="2263"/></clipPath><clipPath id="clip9"><rect x="0" y="0" width="3122" height="2263"/></clipPath><clipPath id="clip10"><rect x="0" y="0" width="3122" height="2263"/></clipPath><clipPath id="clip11"><rect x="0" y="0" width="3122" height="2263"/></clipPath><clipPath id="clip12"><rect x="0" y="0" width="3122" height="2263"/></clipPath><clipPath id="clip13"><rect x="0" y="0" width="3122" height="2263"/></clipPath><clipPath id="clip14"><rect x="0" y="0" width="3122" height="2263"/></clipPath><clipPath id="clip15"><rect x="0" y="0" width="3122" height="2263"/></clipPath><clipPath id="clip16"><rect x="0" y="0" width="3122" height="2263"/></clipPath><clipPath id="clip17"><rect x="0" y="0" width="3122" height="2263"/></clipPath><clipPath id="clip18"><rect x="0" y="0" width="3122" height="2263"/></clipPath><clipPath id="clip19"><rect x="0" y="0" width="3122" height="2263"/></clipPath><clipPath id="clip20"><rect x="0" y="0" width="3122" height="2263"/></clipPath><clipPath id="clip21"><rect x="0" y="0" width="3122" height="2263"/></clipPath><clipPath id="clip22"><rect x="0" y="0" width="3122" height="2263"/></clipPath><clipPath id="clip23"><rect x="0" y="0" width="3122" height="2263"/></clipPath><clipPath id="clip24"><rect x="0" y="0" width="3122" height="2263"/></clipPath><clipPath id="clip25"><rect x="0" y="0" width="3122" height="2263"/></clipPath><clipPath id="clip26"><rect x="0" y="0" width="3122" height="2263"/></clipPath><clipPath id="clip27"><rect x="0" y="0" width="3122" height="2263"/></clipPath><clipPath id="clip28"><rect x="0" y="0" width="3122" height="2263"/></clipPath></defs><g clip-path="url(#clip0)" transform="translate(1 1)"><rect x="0" y="0" width="3122" height="2264" fill="#FFFFFF"/><g clip-path="url(#clip1)"><path d="M353.5 1790.56 3030.5 1790.56M353.5 1520.55 3030.5 1520.55M353.5 1250.54 3030.5 1250.54M353.5 980.532 3030.5 980.532M353.5 710.523 3030.5 710.523M353.5 440.515 3030.5 440.515M353.5 169.5 3030.5 169.5" stroke="#D9D9D9" stroke-width="3.4375" stroke-linejoin="round" stroke-miterlimit="10" fill="none"/></g><g clip-path="url(#clip2)"><path d="M799.526 169.5 799.526 2060.5M1245.54 169.5 1245.54 2060.5M1691.56 169.5 1691.56 2060.5M2137.57 169.5 2137.57 2060.5M2583.58 169.5 2583.58 2060.5M3030.5 169.5 3030.5 2060.5" stroke="#D9D9D9" stroke-width="3.4375" stroke-linejoin="round" stroke-miterlimit="10" fill="none"/></g><g clip-path="url(#clip3)"><path d="M0 0 0.000360892 1891" stroke="#BFBFBF" stroke-width="3.4375" stroke-linejoin="round" stroke-miterlimit="10" fill="none" fill-rule="evenodd" transform="matrix(1 0 0 -1 353.5 2060.5)"/></g><g clip-path="url(#clip4)"><path d="M353.5 2060.5 3030.5 2060.5" stroke="#BFBFBF" stroke-width="3.4375" stroke-linejoin="round" stroke-miterlimit="10" fill="none" fill-rule="evenodd"/></g><g clip-path="url(#clip5)"><path d="M453.499 640.5C453.499 646.574 448.574 651.499 442.5 651.499 436.425 651.499 431.5 646.574 431.5 640.5 431.5 634.425 436.425 629.5 442.5 629.5 448.574 629.5 453.499 634.425 453.499 640.5Z" stroke="#4472C4" stroke-width="3.4375" stroke-linejoin="round" stroke-miterlimit="10" fill="#4472C4"/><path d="M498.499 1945.5C498.499 1951.57 493.574 1956.5 487.5 1956.5 481.425 1956.5 476.5 1951.57 476.5 1945.5 476.5 1939.42 481.425 1934.5 487.5 1934.5 493.574 1934.5 498.499 1939.42 498.499 1945.5Z" stroke="#4472C4" stroke-width="3.4375" stroke-linejoin="round" stroke-miterlimit="10" fill="#4472C4"/><path d="M542.499 1982.5C542.499 1988.57 537.575 1993.5 531.5 1993.5 525.425 1993.5 520.5 1988.57 520.5 1982.5 520.5 1976.42 525.425 1971.5 531.5 1971.5 537.575 1971.5 542.499 1976.42 542.499 1982.5Z" stroke="#4472C4" stroke-width="3.4375" stroke-linejoin="round" stroke-miterlimit="10" fill="#4472C4"/><path d="M587.499 1943.5C587.499 1949.57 582.575 1954.5 576.5 1954.5 570.425 1954.5 565.5 1949.57 565.5 1943.5 565.5 1937.42 570.425 1932.5 576.5 1932.5 582.575 1932.5 587.499 1937.42 587.499 1943.5Z" stroke="#4472C4" stroke-width="3.4375" stroke-linejoin="round" stroke-miterlimit="10" fill="#4472C4"/><path d="M632.499 1807.5C632.499 1813.57 627.575 1818.5 621.5 1818.5 615.425 1818.5 610.5 1813.57 610.5 1807.5 610.5 1801.42 615.425 1796.5 621.5 1796.5 627.575 1796.5 632.499 1801.42 632.499 1807.5Z" stroke="#4472C4" stroke-width="3.4375" stroke-linejoin="round" stroke-miterlimit="10" fill="#4472C4"/><path d="M676.499 1788.5C676.499 1794.57 671.575 1799.5 665.5 1799.5 659.425 1799.5 654.5 1794.57 654.5 1788.5 654.5 1782.42 659.425 1777.5 665.5 1777.5 671.575 1777.5 676.499 1782.42 676.499 1788.5Z" stroke="#4472C4" stroke-width="3.4375" stroke-linejoin="round" stroke-miterlimit="10" fill="#4472C4"/><path d="M721.499 1736.5C721.499 1742.57 716.575 1747.5 710.5 1747.5 704.425 1747.5 699.5 1742.57 699.5 1736.5 699.5 1730.42 704.425 1725.5 710.5 1725.5 716.575 1725.5 721.499 1730.42 721.499 1736.5Z" stroke="#4472C4" stroke-width="3.4375" stroke-linejoin="round" stroke-miterlimit="10" fill="#4472C4"/><path d="M765.499 1721.5C765.499 1727.57 760.575 1732.5 754.5 1732.5 748.425 1732.5 743.5 1727.57 743.5 1721.5 743.5 1715.42 748.425 1710.5 754.5 1710.5 760.575 1710.5 765.499 1715.42 765.499 1721.5Z" stroke="#4472C4" stroke-width="3.4375" stroke-linejoin="round" stroke-miterlimit="10" fill="#4472C4"/><path d="M810.499 1692.5C810.499 1698.57 805.575 1703.5 799.5 1703.5 793.425 1703.5 788.5 1698.57 788.5 1692.5 788.5 1686.42 793.425 1681.5 799.5 1681.5 805.575 1681.5 810.499 1686.42 810.499 1692.5Z" stroke="#4472C4" stroke-width="3.4375" stroke-linejoin="round" stroke-miterlimit="10" fill="#4472C4"/><path d="M855.499 1607.5C855.499 1613.57 850.575 1618.5 844.5 1618.5 838.425 1618.5 833.5 1613.57 833.5 1607.5 833.5 1601.42 838.425 1596.5 844.5 1596.5 850.575 1596.5 855.499 1601.42 855.499 1607.5Z" stroke="#4472C4" stroke-width="3.4375" stroke-linejoin="round" stroke-miterlimit="10" fill="#4472C4"/><path d="M899.499 1806.5C899.499 1812.57 894.575 1817.5 888.5 1817.5 882.425 1817.5 877.5 1812.57 877.5 1806.5 877.5 1800.42 882.425 1795.5 888.5 1795.5 894.575 1795.5 899.499 1800.42 899.499 1806.5Z" stroke="#4472C4" stroke-width="3.4375" stroke-linejoin="round" stroke-miterlimit="10" fill="#4472C4"/><path d="M944.499 1756.5C944.499 1762.57 939.575 1767.5 933.5 1767.5 927.425 1767.5 922.5 1762.57 922.5 1756.5 922.5 1750.42 927.425 1745.5 933.5 1745.5 939.575 1745.5 944.499 1750.42 944.499 1756.5Z" stroke="#4472C4" stroke-width="3.4375" stroke-linejoin="round" stroke-miterlimit="10" fill="#4472C4"/><path d="M988.499 1687.5C988.499 1693.57 983.575 1698.5 977.5 1698.5 971.425 1698.5 966.5 1693.57 966.5 1687.5 966.5 1681.42 971.425 1676.5 977.5 1676.5 983.575 1676.5 988.499 1681.42 988.499 1687.5Z" stroke="#4472C4" stroke-width="3.4375" stroke-linejoin="round" stroke-miterlimit="10" fill="#4472C4"/><path d="M1033.5 1434.5C1033.5 1440.57 1028.57 1445.5 1022.5 1445.5 1016.42 1445.5 1011.5 1440.57 1011.5 1434.5 1011.5 1428.42 1016.42 1423.5 1022.5 1423.5 1028.57 1423.5 1033.5 1428.42 1033.5 1434.5Z" stroke="#4472C4" stroke-width="3.4375" stroke-linejoin="round" stroke-miterlimit="10" fill="#4472C4"/><path d="M1078.5 1436.5C1078.5 1442.57 1073.57 1447.5 1067.5 1447.5 1061.42 1447.5 1056.5 1442.57 1056.5 1436.5 1056.5 1430.42 1061.42 1425.5 1067.5 1425.5 1073.57 1425.5 1078.5 1430.42 1078.5 1436.5Z" stroke="#4472C4" stroke-width="3.4375" stroke-linejoin="round" stroke-miterlimit="10" fill="#4472C4"/><path d="M1122.5 1484.5C1122.5 1490.57 1117.57 1495.5 1111.5 1495.5 1105.42 1495.5 1100.5 1490.57 1100.5 1484.5 1100.5 1478.42 1105.42 1473.5 1111.5 1473.5 1117.57 1473.5 1122.5 1478.42 1122.5 1484.5Z" stroke="#4472C4" stroke-width="3.4375" stroke-linejoin="round" stroke-miterlimit="10" fill="#4472C4"/><path d="M1167.5 1510.5C1167.5 1516.57 1162.57 1521.5 1156.5 1521.5 1150.42 1521.5 1145.5 1516.57 1145.5 1510.5 1145.5 1504.42 1150.42 1499.5 1156.5 1499.5 1162.57 1499.5 1167.5 1504.42 1167.5 1510.5Z" stroke="#4472C4" stroke-width="3.4375" stroke-linejoin="round" stroke-miterlimit="10" fill="#4472C4"/><path d="M1211.5 1440.5C1211.5 1446.57 1206.57 1451.5 1200.5 1451.5 1194.42 1451.5 1189.5 1446.57 1189.5 1440.5 1189.5 1434.42 1194.42 1429.5 1200.5 1429.5 1206.57 1429.5 1211.5 1434.42 1211.5 1440.5Z" stroke="#4472C4" stroke-width="3.4375" stroke-linejoin="round" stroke-miterlimit="10" fill="#4472C4"/><path d="M1256.5 454.5C1256.5 460.574 1251.57 465.499 1245.5 465.499 1239.42 465.499 1234.5 460.574 1234.5 454.5 1234.5 448.425 1239.42 443.5 1245.5 443.5 1251.57 443.5 1256.5 448.425 1256.5 454.5Z" stroke="#4472C4" stroke-width="3.4375" stroke-linejoin="round" stroke-miterlimit="10" fill="#4472C4"/><path d="M1301.5 1388.5C1301.5 1394.57 1296.57 1399.5 1290.5 1399.5 1284.42 1399.5 1279.5 1394.57 1279.5 1388.5 1279.5 1382.42 1284.42 1377.5 1290.5 1377.5 1296.57 1377.5 1301.5 1382.42 1301.5 1388.5Z" stroke="#4472C4" stroke-width="3.4375" stroke-linejoin="round" stroke-miterlimit="10" fill="#4472C4"/><path d="M1345.5 1513.5C1345.5 1519.57 1340.57 1524.5 1334.5 1524.5 1328.42 1524.5 1323.5 1519.57 1323.5 1513.5 1323.5 1507.42 1328.42 1502.5 1334.5 1502.5 1340.57 1502.5 1345.5 1507.42 1345.5 1513.5Z" stroke="#4472C4" stroke-width="3.4375" stroke-linejoin="round" stroke-miterlimit="10" fill="#4472C4"/><path d="M1390.5 1429.5C1390.5 1435.57 1385.57 1440.5 1379.5 1440.5 1373.42 1440.5 1368.5 1435.57 1368.5 1429.5 1368.5 1423.42 1373.42 1418.5 1379.5 1418.5 1385.57 1418.5 1390.5 1423.42 1390.5 1429.5Z" stroke="#4472C4" stroke-width="3.4375" stroke-linejoin="round" stroke-miterlimit="10" fill="#4472C4"/><path d="M1435.5 1491.5C1435.5 1497.57 1430.57 1502.5 1424.5 1502.5 1418.42 1502.5 1413.5 1497.57 1413.5 1491.5 1413.5 1485.42 1418.42 1480.5 1424.5 1480.5 1430.57 1480.5 1435.5 1485.42 1435.5 1491.5Z" stroke="#4472C4" stroke-width="3.4375" stroke-linejoin="round" stroke-miterlimit="10" fill="#4472C4"/><path d="M1479.5 1325.5C1479.5 1331.57 1474.57 1336.5 1468.5 1336.5 1462.42 1336.5 1457.5 1331.57 1457.5 1325.5 1457.5 1319.42 1462.42 1314.5 1468.5 1314.5 1474.57 1314.5 1479.5 1319.42 1479.5 1325.5Z" stroke="#4472C4" stroke-width="3.4375" stroke-linejoin="round" stroke-miterlimit="10" fill="#4472C4"/><path d="M1524.5 1212.5C1524.5 1218.57 1519.57 1223.5 1513.5 1223.5 1507.42 1223.5 1502.5 1218.57 1502.5 1212.5 1502.5 1206.42 1507.42 1201.5 1513.5 1201.5 1519.57 1201.5 1524.5 1206.42 1524.5 1212.5Z" stroke="#4472C4" stroke-width="3.4375" stroke-linejoin="round" stroke-miterlimit="10" fill="#4472C4"/><path d="M1568.5 1257.5C1568.5 1263.57 1563.57 1268.5 1557.5 1268.5 1551.42 1268.5 1546.5 1263.57 1546.5 1257.5 1546.5 1251.42 1551.42 1246.5 1557.5 1246.5 1563.57 1246.5 1568.5 1251.42 1568.5 1257.5Z" stroke="#4472C4" stroke-width="3.4375" stroke-linejoin="round" stroke-miterlimit="10" fill="#4472C4"/><path d="M1613.5 1455.5C1613.5 1461.57 1608.57 1466.5 1602.5 1466.5 1596.42 1466.5 1591.5 1461.57 1591.5 1455.5 1591.5 1449.42 1596.42 1444.5 1602.5 1444.5 1608.57 1444.5 1613.5 1449.42 1613.5 1455.5Z" stroke="#4472C4" stroke-width="3.4375" stroke-linejoin="round" stroke-miterlimit="10" fill="#4472C4"/><path d="M1658.5 1270.5C1658.5 1276.57 1653.57 1281.5 1647.5 1281.5 1641.42 1281.5 1636.5 1276.57 1636.5 1270.5 1636.5 1264.42 1641.42 1259.5 1647.5 1259.5 1653.57 1259.5 1658.5 1264.42 1658.5 1270.5Z" stroke="#4472C4" stroke-width="3.4375" stroke-linejoin="round" stroke-miterlimit="10" fill="#4472C4"/><path d="M1702.5 1337.5C1702.5 1343.57 1697.57 1348.5 1691.5 1348.5 1685.42 1348.5 1680.5 1343.57 1680.5 1337.5 1680.5 1331.42 1685.42 1326.5 1691.5 1326.5 1697.57 1326.5 1702.5 1331.42 1702.5 1337.5Z" stroke="#4472C4" stroke-width="3.4375" stroke-linejoin="round" stroke-miterlimit="10" fill="#4472C4"/><path d="M1747.5 1450.5C1747.5 1456.57 1742.57 1461.5 1736.5 1461.5 1730.42 1461.5 1725.5 1456.57 1725.5 1450.5 1725.5 1444.42 1730.42 1439.5 1736.5 1439.5 1742.57 1439.5 1747.5 1444.42 1747.5 1450.5Z" stroke="#4472C4" stroke-width="3.4375" stroke-linejoin="round" stroke-miterlimit="10" fill="#4472C4"/><path d="M1791.5 961.5C1791.5 967.575 1786.57 972.499 1780.5 972.499 1774.42 972.499 1769.5 967.575 1769.5 961.5 1769.5 955.425 1774.42 950.5 1780.5 950.5 1786.57 950.5 1791.5 955.425 1791.5 961.5Z" stroke="#4472C4" stroke-width="3.4375" stroke-linejoin="round" stroke-miterlimit="10" fill="#4472C4"/><path d="M1836.5 1242.5C1836.5 1248.57 1831.57 1253.5 1825.5 1253.5 1819.42 1253.5 1814.5 1248.57 1814.5 1242.5 1814.5 1236.42 1819.42 1231.5 1825.5 1231.5 1831.57 1231.5 1836.5 1236.42 1836.5 1242.5Z" stroke="#4472C4" stroke-width="3.4375" stroke-linejoin="round" stroke-miterlimit="10" fill="#4472C4"/><path d="M1881.5 1272.5C1881.5 1278.57 1876.57 1283.5 1870.5 1283.5 1864.42 1283.5 1859.5 1278.57 1859.5 1272.5 1859.5 1266.42 1864.42 1261.5 1870.5 1261.5 1876.57 1261.5 1881.5 1266.42 1881.5 1272.5Z" stroke="#4472C4" stroke-width="3.4375" stroke-linejoin="round" stroke-miterlimit="10" fill="#4472C4"/><path d="M1925.5 1060.5C1925.5 1066.57 1920.57 1071.5 1914.5 1071.5 1908.42 1071.5 1903.5 1066.57 1903.5 1060.5 1903.5 1054.42 1908.42 1049.5 1914.5 1049.5 1920.57 1049.5 1925.5 1054.42 1925.5 1060.5Z" stroke="#4472C4" stroke-width="3.4375" stroke-linejoin="round" stroke-miterlimit="10" fill="#4472C4"/><path d="M1970.5 1253.5C1970.5 1259.57 1965.57 1264.5 1959.5 1264.5 1953.42 1264.5 1948.5 1259.57 1948.5 1253.5 1948.5 1247.42 1953.42 1242.5 1959.5 1242.5 1965.57 1242.5 1970.5 1247.42 1970.5 1253.5Z" stroke="#4472C4" stroke-width="3.4375" stroke-linejoin="round" stroke-miterlimit="10" fill="#4472C4"/><path d="M2014.5 1459.5C2014.5 1465.57 2009.57 1470.5 2003.5 1470.5 1997.42 1470.5 1992.5 1465.57 1992.5 1459.5 1992.5 1453.42 1997.42 1448.5 2003.5 1448.5 2009.57 1448.5 2014.5 1453.42 2014.5 1459.5Z" stroke="#4472C4" stroke-width="3.4375" stroke-linejoin="round" stroke-miterlimit="10" fill="#4472C4"/><path d="M2059.5 1263.5C2059.5 1269.57 2054.57 1274.5 2048.5 1274.5 2042.42 1274.5 2037.5 1269.57 2037.5 1263.5 2037.5 1257.42 2042.42 1252.5 2048.5 1252.5 2054.57 1252.5 2059.5 1257.42 2059.5 1263.5Z" stroke="#4472C4" stroke-width="3.4375" stroke-linejoin="round" stroke-miterlimit="10" fill="#4472C4"/><path d="M2104.5 1204.5C2104.5 1210.57 2099.57 1215.5 2093.5 1215.5 2087.42 1215.5 2082.5 1210.57 2082.5 1204.5 2082.5 1198.42 2087.42 1193.5 2093.5 1193.5 2099.57 1193.5 2104.5 1198.42 2104.5 1204.5Z" stroke="#4472C4" stroke-width="3.4375" stroke-linejoin="round" stroke-miterlimit="10" fill="#4472C4"/><path d="M2148.5 945.5C2148.5 951.575 2143.57 956.499 2137.5 956.499 2131.42 956.499 2126.5 951.575 2126.5 945.5 2126.5 939.425 2131.42 934.5 2137.5 934.5 2143.57 934.5 2148.5 939.425 2148.5 945.5Z" stroke="#4472C4" stroke-width="3.4375" stroke-linejoin="round" stroke-miterlimit="10" fill="#4472C4"/><path d="M2193.5 1127.5C2193.5 1133.57 2188.57 1138.5 2182.5 1138.5 2176.42 1138.5 2171.5 1133.57 2171.5 1127.5 2171.5 1121.42 2176.42 1116.5 2182.5 1116.5 2188.57 1116.5 2193.5 1121.42 2193.5 1127.5Z" stroke="#4472C4" stroke-width="3.4375" stroke-linejoin="round" stroke-miterlimit="10" fill="#4472C4"/><path d="M2238.5 1049.5C2238.5 1055.57 2233.57 1060.5 2227.5 1060.5 2221.42 1060.5 2216.5 1055.57 2216.5 1049.5 2216.5 1043.42 2221.42 1038.5 2227.5 1038.5 2233.57 1038.5 2238.5 1043.42 2238.5 1049.5Z" stroke="#4472C4" stroke-width="3.4375" stroke-linejoin="round" stroke-miterlimit="10" fill="#4472C4"/><path d="M2282.5 1059.5C2282.5 1065.57 2277.57 1070.5 2271.5 1070.5 2265.42 1070.5 2260.5 1065.57 2260.5 1059.5 2260.5 1053.42 2265.42 1048.5 2271.5 1048.5 2277.57 1048.5 2282.5 1053.42 2282.5 1059.5Z" stroke="#4472C4" stroke-width="3.4375" stroke-linejoin="round" stroke-miterlimit="10" fill="#4472C4"/><path d="M2327.5 1239.5C2327.5 1245.57 2322.57 1250.5 2316.5 1250.5 2310.42 1250.5 2305.5 1245.57 2305.5 1239.5 2305.5 1233.42 2310.42 1228.5 2316.5 1228.5 2322.57 1228.5 2327.5 1233.42 2327.5 1239.5Z" stroke="#4472C4" stroke-width="3.4375" stroke-linejoin="round" stroke-miterlimit="10" fill="#4472C4"/><path d="M2371.5 988.5C2371.5 994.575 2366.57 999.499 2360.5 999.499 2354.42 999.499 2349.5 994.575 2349.5 988.5 2349.5 982.425 2354.42 977.5 2360.5 977.5 2366.57 977.5 2371.5 982.425 2371.5 988.5Z" stroke="#4472C4" stroke-width="3.4375" stroke-linejoin="round" stroke-miterlimit="10" fill="#4472C4"/><path d="M2416.5 1117.5C2416.5 1123.57 2411.57 1128.5 2405.5 1128.5 2399.42 1128.5 2394.5 1123.57 2394.5 1117.5 2394.5 1111.42 2399.42 1106.5 2405.5 1106.5 2411.57 1106.5 2416.5 1111.42 2416.5 1117.5Z" stroke="#4472C4" stroke-width="3.4375" stroke-linejoin="round" stroke-miterlimit="10" fill="#4472C4"/><path d="M2461.5 1004.5C2461.5 1010.57 2456.57 1015.5 2450.5 1015.5 2444.42 1015.5 2439.5 1010.57 2439.5 1004.5 2439.5 998.425 2444.42 993.5 2450.5 993.5 2456.57 993.5 2461.5 998.425 2461.5 1004.5Z" stroke="#4472C4" stroke-width="3.4375" stroke-linejoin="round" stroke-miterlimit="10" fill="#4472C4"/><path d="M2505.5 980.5C2505.5 986.574 2500.57 991.499 2494.5 991.499 2488.42 991.499 2483.5 986.574 2483.5 980.5 2483.5 974.425 2488.42 969.5 2494.5 969.5 2500.57 969.5 2505.5 974.425 2505.5 980.5Z" stroke="#4472C4" stroke-width="3.4375" stroke-linejoin="round" stroke-miterlimit="10" fill="#4472C4"/><path d="M2550.5 930.5C2550.5 936.575 2545.57 941.499 2539.5 941.499 2533.42 941.499 2528.5 936.575 2528.5 930.5 2528.5 924.425 2533.42 919.5 2539.5 919.5 2545.57 919.5 2550.5 924.425 2550.5 930.5Z" stroke="#4472C4" stroke-width="3.4375" stroke-linejoin="round" stroke-miterlimit="10" fill="#4472C4"/><path d="M2594.5 612.5C2594.5 618.575 2589.57 623.499 2583.5 623.499 2577.42 623.499 2572.5 618.575 2572.5 612.5 2572.5 606.425 2577.42 601.5 2583.5 601.5 2589.57 601.5 2594.5 606.425 2594.5 612.5Z" stroke="#4472C4" stroke-width="3.4375" stroke-linejoin="round" stroke-miterlimit="10" fill="#4472C4"/></g><g clip-path="url(#clip6)"><path d="M442.5 1945.5 445.515 1937.56 448.515 1930.56 450.515 1922.56 453.515 1915.56 456.515 1908.56 459.515 1901.56 461.515 1895.56 464.515 1888.56 467.516 1882.56 470.516 1876.56 472.516 1870.56 475.516 1864.56 478.516 1858.56 481.516 1852.56 483.516 1847.56 486.516 1842.56 489.516 1836.56 492.516 1831.56 494.516 1826.56 497.517 1821.56 500.517 1816.56 503.517 1811.56 505.517 1807.56 508.517 1802.56 511.517 1798.56 514.517 1793.56 516.517 1789.56 519.517 1784.56 522.517 1780.56 525.517 1776.56 527.518 1772.56 530.518 1768.56 533.518 1764.56 536.518 1760.56 538.518 1756.56 541.518 1752.56 544.518 1749.56 547.518 1745.56 549.518 1741.56 552.518 1738.56 555.518 1734.56 558.518 1731.56 560.519 1727.56 563.519 1724.56 566.519 1720.56 569.519 1717.56 571.519 1714.56 574.519 1711.56 577.519 1707.56 580.519 1704.56 582.519 1701.56 585.519 1698.56 588.52 1695.56 591.52 1692.56 593.52 1689.56 596.52 1686.56 599.52 1683.56 602.52 1680.56 604.52 1678.56 607.52 1675.56 610.52 1672.55 613.52 1669.55 615.52 1666.55 618.521 1664.55 621.521 1661.55 624.521 1658.55 626.521 1656.55 629.521 1653.55 632.521 1651.55 635.521 1648.55 637.521 1646.55 640.521 1643.55 643.521 1641.55 646.521 1638.55 648.521 1636.55 651.522 1633.55 654.522 1631.55 657.522 1629.55 659.522 1626.55 662.522 1624.55 665.522 1622.55 668.522 1620.55 670.522 1617.55 673.522 1615.55 676.522 1613.55 679.522 1611.55 682.523 1609.55 684.523 1606.55 687.523 1604.55 690.523 1602.55 693.523 1600.55 695.523 1598.55 698.523 1596.55 701.523 1594.55 704.523 1592.55 706.523 1590.55 709.523 1588.55 712.524 1586.55 715.524 1584.55 717.524 1582.55 720.524 1580.55 723.524 1578.55 726.524 1576.55 728.524 1574.55 731.524 1572.55 734.524 1570.55 737.524 1569.55 739.524 1567.55 742.525 1565.55 745.525 1563.55 748.525 1561.55 750.525 1560.55 753.525 1558.55 756.525 1556.55 759.525 1554.55 761.525 1552.55 764.525 1551.55 767.525 1549.55 770.525 1547.55 772.526 1546.55 775.526 1544.55 778.526 1542.55 781.526 1541.55 783.526 1539.55 786.526 1537.55 789.526 1536.55 792.526 1534.55 794.526 1532.55 797.526 1531.55 800.526 1529.55 803.527 1528.55 805.527 1526.55 808.527 1524.55 811.527 1523.55 814.527 1521.55 816.527 1520.55 819.527 1518.55 822.527 1517.55 825.527 1515.55 827.527 1514.55 830.527 1512.55 833.528 1511.55 836.528 1509.55 838.528 1508.55 841.528 1506.55 844.528 1505.55 847.528 1504.55 849.528 1502.55 852.528 1501.55 855.528 1499.55 858.528 1498.55 860.528 1496.55 863.529 1495.55 866.529 1494.55 869.529 1492.55 871.529 1491.55 874.529 1490.55 877.529 1488.55 880.529 1487.55 882.529 1485.55 885.529 1484.55 888.529 1483.55 891.529 1481.55 893.53 1480.55 896.53 1479.55 899.53 1478.55 902.53 1476.55 904.53 1475.55 907.53 1474.55 910.53 1472.55 913.53 1471.55 915.53 1470.55 918.53 1469.55 921.53 1467.55 924.531 1466.55 926.531 1465.55 929.531 1464.55 932.531 1462.55 935.531 1461.55 937.531 1460.55 940.531 1459.55 943.531 1458.55 946.531 1456.55 948.531 1455.55 951.531 1454.55 954.531 1453.55 957.532 1452.55 959.532 1450.55 962.532 1449.55 965.532 1448.55 968.532 1447.55 970.532 1446.55 973.532 1445.55 976.532 1443.55 979.532 1442.55 982.532 1441.55 984.532 1440.55 987.533 1439.55 990.533 1438.55 993.533 1437.55 995.533 1436.55 998.533 1435.55 1001.53 1433.55 1004.53 1432.55 1006.53 1431.55 1009.53 1430.55 1012.53 1429.55 1015.53 1428.55 1017.53 1427.55 1020.53 1426.55 1023.53 1425.55 1026.53 1424.55 1028.53 1423.55 1031.53 1422.55 1034.53 1421.55 1037.53 1420.55 1039.53 1419.55 1042.53 1417.55 1045.53 1416.55 1048.53 1415.55 1050.53 1414.55 1053.53 1413.55 1056.53 1412.55 1059.53 1411.55 1061.54 1410.55 1064.54 1409.55 1067.54 1408.55 1070.54 1407.55 1072.54 1406.55 1075.54 1405.55 1078.54 1404.55 1081.54 1403.55 1083.54 1402.55 1086.54 1402.55 1089.54 1401.55 1092.54 1400.55 1094.54 1399.55 1097.54 1398.55 1100.54 1397.55 1103.54 1396.55 1105.54 1395.55 1108.54 1394.55 1111.54 1393.55 1114.54 1392.55 1116.54 1391.55 1119.54 1390.55 1122.54 1389.55 1125.54 1388.55 1127.54 1387.55 1130.54 1386.55 1133.54 1386.55 1136.54 1385.55 1138.54 1384.55 1141.54 1383.55 1144.54 1382.55 1147.54 1381.55 1149.54 1380.55 1152.54 1379.55 1155.54 1378.55 1158.54 1377.55 1160.54 1377.55 1163.54 1376.55 1166.54 1375.55 1169.54 1374.55 1171.54 1373.55 1174.54 1372.55 1177.54 1371.55 1180.54 1371.55 1182.54 1370.55 1185.54 1369.55 1188.54 1368.55 1191.54 1367.54 1193.54 1366.54 1196.54 1365.54 1199.54 1365.54 1202.54 1364.54 1204.54 1363.54 1207.54 1362.54 1210.54 1361.54 1213.54 1360.54 1215.54 1360.54 1218.54 1359.54 1221.54 1358.54 1224.54 1357.54 1226.54 1356.54 1229.54 1355.54 1232.54 1355.54 1235.54 1354.54 1237.54 1353.54 1240.54 1352.54 1243.54 1351.54 1246.54 1351.54 1248.54 1350.54 1251.54 1349.54 1254.54 1348.54 1257.54 1348.54 1259.54 1347.54 1262.54 1346.54 1265.54 1345.54 1268.54 1344.54 1270.54 1344.54 1273.54 1343.54 1276.54 1342.54 1279.54 1341.54 1282.54 1341.54 1284.54 1340.54 1287.54 1339.54 1290.54 1338.54 1293.54 1338.54 1295.54 1337.54 1298.54 1336.54 1301.54 1335.54 1304.54 1334.54 1306.54 1334.54 1309.54 1333.54 1312.54 1332.54 1315.54 1332.54 1317.54 1331.54 1320.54 1330.54 1323.54 1329.54 1326.54 1329.54 1328.54 1328.54 1331.54 1327.54 1334.54 1326.54 1337.54 1326.54 1339.54 1325.54 1342.54 1324.54 1345.54 1324.54 1348.54 1323.54 1350.54 1322.54 1353.54 1321.54 1356.54 1321.54 1359.54 1320.54 1361.54 1319.54 1364.54 1319.54 1367.55 1318.54 1370.55 1317.54 1372.55 1316.54 1375.55 1316.54 1378.55 1315.54 1381.55 1314.54 1383.55 1314.54 1386.55 1313.54 1389.55 1312.54 1392.55 1312.54 1394.55 1311.54 1397.55 1310.54 1400.55 1310.54 1403.55 1309.54 1405.55 1308.54 1408.55 1308.54 1411.55 1307.54 1414.55 1306.54 1416.55 1306.54 1419.55 1305.54 1422.55 1304.54 1425.55 1304.54 1427.55 1303.54 1430.55 1302.54 1433.55 1302.54 1436.55 1301.54 1438.55 1300.54 1441.55 1300.54 1444.55 1299.54 1447.55 1298.54 1449.55 1298.54 1452.55 1297.54 1455.55 1296.54 1458.55 1296.54 1460.55 1295.54 1463.55 1294.54 1466.55 1294.54 1469.55 1293.54 1471.55 1293.54 1474.55 1292.54 1477.55 1291.54 1480.55 1291.54 1482.55 1290.54 1485.55 1289.54 1488.55 1289.54 1491.55 1288.54 1493.55 1288.54 1496.55 1287.54 1499.55 1286.54 1502.55 1286.54 1504.55 1285.54 1507.55 1284.54 1510.55 1284.54 1513.55 1283.54 1515.55 1283.54 1518.55 1282.54 1521.55 1281.54 1524.55 1281.54 1526.55 1280.54 1529.55 1280.54 1532.55 1279.54 1535.55 1278.54 1537.55 1278.54 1540.55 1277.54 1543.55 1277.54 1546.55 1276.54 1548.55 1275.54 1551.55 1275.54 1554.55 1274.54 1557.55 1274.54 1559.55 1273.54 1562.55 1272.54 1565.55 1272.54 1568.55 1271.54 1570.55 1271.54 1573.55 1270.54 1576.55 1269.54 1579.55 1269.54 1582.55 1268.54 1584.55 1268.54 1587.55 1267.54 1590.55 1267.54 1593.55 1266.54 1595.55 1265.54 1598.55 1265.54 1601.55 1264.54 1604.55 1264.54 1606.55 1263.54 1609.55 1263.54 1612.55 1262.54 1615.55 1261.54 1617.55 1261.54 1620.55 1260.54 1623.55 1260.54 1626.55 1259.54 1628.55 1259.54 1631.55 1258.54 1634.55 1258.54 1637.55 1257.54 1639.55 1256.54 1642.55 1256.54 1645.55 1255.54 1648.55 1255.54 1650.55 1254.54 1653.55 1254.54 1656.55 1253.54 1659.55 1253.54 1661.55 1252.54 1664.55 1252.54 1667.55 1251.54 1670.55 1250.54 1672.56 1250.54 1675.56 1249.54 1678.56 1249.54 1681.56 1248.54 1683.56 1248.54 1686.56 1247.54 1689.56 1247.54 1692.56 1246.54 1694.56 1246.54 1697.56 1245.54 1700.56 1245.54 1703.56 1244.54 1705.56 1244.54 1708.56 1243.54 1711.56 1242.54 1714.56 1242.54 1716.56 1241.54 1719.56 1241.54 1722.56 1240.54 1725.56 1240.54 1727.56 1239.54 1730.56 1239.54 1733.56 1238.54 1736.56 1238.54 1738.56 1237.54 1741.56 1237.54 1744.56 1236.54 1747.56 1236.54 1749.56 1235.54 1752.56 1235.54 1755.56 1234.54 1758.56 1234.54 1760.56 1233.54 1763.56 1233.54 1766.56 1232.54 1769.56 1232.54 1771.56 1231.54 1774.56 1231.54 1777.56 1230.54 1780.56 1230.54 1782.56 1229.54 1785.56 1229.54 1788.56 1228.54 1791.56 1228.54 1793.56 1227.54 1796.56 1227.54 1799.56 1226.54 1802.56 1226.54 1804.56 1225.54 1807.56 1225.54 1810.56 1224.54 1813.56 1224.54 1815.56 1223.54 1818.56 1223.54 1821.56 1222.54 1824.56 1222.54 1826.56 1221.54 1829.56 1221.54 1832.56 1220.54 1835.56 1220.54 1837.56 1219.54 1840.56 1219.54 1843.56 1219.54 1846.56 1218.54 1848.56 1218.54 1851.56 1217.54 1854.56 1217.54 1857.56 1216.54 1859.56 1216.54 1862.56 1215.54 1865.56 1215.54 1868.56 1214.54 1870.56 1214.54 1873.56 1213.54 1876.56 1213.54 1879.56 1212.54 1882.56 1212.54 1884.56 1211.54 1887.56 1211.54 1890.56 1211.54 1893.56 1210.54 1895.56 1210.54 1898.56 1209.54 1901.56 1209.54 1904.56 1208.54 1906.56 1208.54 1909.56 1207.54 1912.56 1207.54 1915.56 1206.54 1917.56 1206.54 1920.56 1206.54 1923.56 1205.54 1926.56 1205.54 1928.56 1204.54 1931.56 1204.54 1934.56 1203.54 1937.56 1203.54 1939.56 1202.54 1942.56 1202.54 1945.56 1201.54 1948.56 1201.54 1950.56 1201.54 1953.56 1200.54 1956.56 1200.54 1959.56 1199.54 1961.56 1199.54 1964.56 1198.54 1967.56 1198.54 1970.56 1197.54 1972.56 1197.54 1975.56 1197.54 1978.57 1196.54 1981.57 1196.54 1983.57 1195.54 1986.57 1195.54 1989.57 1194.54 1992.57 1194.54 1994.57 1194.54 1997.57 1193.54 2000.57 1193.54 2003.57 1192.54 2005.57 1192.54 2008.57 1191.54 2011.57 1191.54 2014.57 1191.54 2016.57 1190.54 2019.57 1190.54 2022.57 1189.54 2025.57 1189.54 2027.57 1188.54 2030.57 1188.54 2033.57 1188.54 2036.57 1187.54 2038.57 1187.54 2041.57 1186.54 2044.57 1186.54 2047.57 1185.54 2049.57 1185.54 2052.57 1185.54 2055.57 1184.54 2058.57 1184.54 2060.57 1183.54 2063.57 1183.54 2066.57 1183.54 2069.57 1182.54 2071.57 1182.54 2074.57 1181.54 2077.57 1181.54 2080.57 1180.54 2082.57 1180.54 2085.57 1180.54 2088.57 1179.54 2091.57 1179.54 2093.57 1178.54 2096.57 1178.54 2099.57 1178.54 2102.57 1177.54 2104.57 1177.54 2107.57 1176.54 2110.57 1176.54 2113.57 1176.54 2115.57 1175.54 2118.57 1175.54 2121.57 1174.54 2124.57 1174.54 2126.57 1174.54 2129.57 1173.54 2132.57 1173.54 2135.57 1172.54 2137.57 1172.54 2140.57 1172.54 2143.57 1171.54 2146.57 1171.54 2148.57 1170.54 2151.57 1170.54 2154.57 1170.54 2157.57 1169.54 2159.57 1169.54 2162.57 1168.54 2165.57 1168.54 2168.57 1168.54 2170.57 1167.54 2173.57 1167.54 2176.57 1166.54 2179.57 1166.54 2182.57 1166.54 2184.57 1165.54 2187.57 1165.54 2190.57 1165.54 2193.57 1164.54 2195.57 1164.54 2198.57 1163.54 2201.57 1163.54 2204.57 1163.54 2206.57 1162.54 2209.57 1162.54 2212.57 1161.54 2215.57 1161.54 2217.57 1161.54 2220.57 1160.54 2223.57 1160.54 2226.57 1160.54 2228.57 1159.54 2231.57 1159.54 2234.57 1158.54 2237.57 1158.54 2239.57 1158.54 2242.57 1157.54 2245.57 1157.54 2248.57 1157.54 2250.57 1156.54 2253.57 1156.54 2256.57 1155.54 2259.57 1155.54 2261.57 1155.54 2264.57 1154.54 2267.57 1154.54 2270.57 1154.54 2272.57 1153.54 2275.57 1153.54 2278.57 1152.54 2281.57 1152.54 2283.58 1152.54 2286.58 1151.54 2289.58 1151.54 2292.58 1151.54 2294.58 1150.54 2297.58 1150.54 2300.58 1150.54 2303.58 1149.54 2305.58 1149.54 2308.58 1148.54 2311.58 1148.54 2314.58 1148.54 2316.58 1147.54 2319.58 1147.54 2322.58 1147.54 2325.58 1146.54 2327.58 1146.54 2330.58 1146.54 2333.58 1145.54 2336.58 1145.54 2338.58 1144.54 2341.58 1144.54 2344.58 1144.54 2347.58 1143.54 2349.58 1143.54 2352.58 1143.54 2355.58 1142.54 2358.58 1142.54 2360.58 1142.54 2363.58 1141.54 2366.58 1141.54 2369.58 1141.54 2371.58 1140.54 2374.58 1140.54 2377.58 1140.54 2380.58 1139.54 2382.58 1139.54 2385.58 1138.54 2388.58 1138.54 2391.58 1138.54 2393.58 1137.54 2396.58 1137.54 2399.58 1137.54 2402.58 1136.54 2404.58 1136.54 2407.58 1136.54 2410.58 1135.54 2413.58 1135.54 2415.58 1135.54 2418.58 1134.54 2421.58 1134.54 2424.58 1134.54 2426.58 1133.54 2429.58 1133.54 2432.58 1133.54 2435.58 1132.54 2437.58 1132.54 2440.58 1132.54 2443.58 1131.54 2446.58 1131.54 2448.58 1131.54 2451.58 1130.54 2454.58 1130.54 2457.58 1130.54 2459.58 1129.54 2462.58 1129.54 2465.58 1129.54 2468.58 1128.54 2470.58 1128.54 2473.58 1128.54 2476.58 1127.54 2479.58 1127.54 2482.58 1127.54 2484.58 1126.54 2487.58 1126.54 2490.58 1126.54 2493.58 1125.54 2495.58 1125.54 2498.58 1125.54 2501.58 1124.54 2504.58 1124.54 2506.58 1124.54 2509.58 1123.54 2512.58 1123.54 2515.58 1123.54 2517.58 1122.54 2520.58 1122.54 2523.58 1122.54 2526.58 1121.54 2528.58 1121.54 2531.58 1121.54 2534.58 1120.54 2537.58 1120.54 2539.58 1120.54 2542.58 1119.54 2545.58 1119.54 2548.58 1119.54 2550.58 1118.54 2553.58 1118.54 2556.58 1118.54 2559.58 1117.54 2561.58 1117.54 2564.58 1117.54 2567.58 1116.54 2570.58 1116.54 2572.58 1116.54 2575.58 1115.54 2578.58 1115.54 2581.58 1115.54 2583.5 1114.5" stroke="#4472C4" stroke-width="6.875" stroke-linecap="round" stroke-linejoin="round" stroke-miterlimit="10" stroke-dasharray="0 13.75" fill="none"/></g><g clip-path="url(#clip7)"><text fill="#595959" font-family="Calibri,Calibri_MSFontService,sans-serif" font-weight="400" font-size="73" transform="matrix(1 0 0 1 2257.42 684)">y = 5E+07ln(x) </text></g><g clip-path="url(#clip8)"><text fill="#595959" font-family="Calibri,Calibri_MSFontService,sans-serif" font-weight="400" font-size="73" transform="matrix(1 0 0 1 2692.27 684)">-</text></g><g clip-path="url(#clip9)"><text fill="#595959" font-family="Calibri,Calibri_MSFontService,sans-serif" font-weight="400" font-size="73" transform="matrix(1 0 0 1 2731.3 684)">2E+08</text></g><g clip-path="url(#clip10)"><text fill="#595959" font-family="Calibri,Calibri_MSFontService,sans-serif" font-weight="400" font-size="73" transform="matrix(1 0 0 1 2417.04 773)">R² = 0.3409</text></g><g clip-path="url(#clip11)"><text fill="#595959" font-family="Calibri,Calibri_MSFontService,sans-serif" font-weight="400" font-size="41" transform="matrix(1 0 0 1 294.181 2072)">0</text></g><g clip-path="url(#clip12)"><text fill="#595959" font-family="Calibri,Calibri_MSFontService,sans-serif" font-weight="400" font-size="41" transform="matrix(1 0 0 1 147.881 1802)">50000000</text></g><g clip-path="url(#clip13)"><text fill="#595959" font-family="Calibri,Calibri_MSFontService,sans-serif" font-weight="400" font-size="41" transform="matrix(1 0 0 1 126.981 1532)">100000000</text></g><g clip-path="url(#clip14)"><text fill="#595959" font-family="Calibri,Calibri_MSFontService,sans-serif" font-weight="400" font-size="41" transform="matrix(1 0 0 1 126.981 1262)">150000000</text></g><g clip-path="url(#clip15)"><text fill="#595959" font-family="Calibri,Calibri_MSFontService,sans-serif" font-weight="400" font-size="41" transform="matrix(1 0 0 1 126.981 992)">200000000</text></g><g clip-path="url(#clip16)"><text fill="#595959" font-family="Calibri,Calibri_MSFontService,sans-serif" font-weight="400" font-size="41" transform="matrix(1 0 0 1 126.981 722)">250000000</text></g><g clip-path="url(#clip17)"><text fill="#595959" font-family="Calibri,Calibri_MSFontService,sans-serif" font-weight="400" font-size="41" transform="matrix(1 0 0 1 126.981 452)">300000000</text></g><g clip-path="url(#clip18)"><text fill="#595959" font-family="Calibri,Calibri_MSFontService,sans-serif" font-weight="400" font-size="41" transform="matrix(1 0 0 1 126.981 182)">350000000</text></g><g clip-path="url(#clip19)"><text fill="#595959" font-family="Calibri,Calibri_MSFontService,sans-serif" font-weight="400" font-size="41" transform="matrix(1 0 0 1 342.898 2125)">0</text></g><g clip-path="url(#clip20)"><text fill="#595959" font-family="Calibri,Calibri_MSFontService,sans-serif" font-weight="400" font-size="41" transform="matrix(1 0 0 1 768.114 2125)">500</text></g><g clip-path="url(#clip21)"><text fill="#595959" font-family="Calibri,Calibri_MSFontService,sans-serif" font-weight="400" font-size="41" transform="matrix(1 0 0 1 1203.78 2125)">1000</text></g><g clip-path="url(#clip22)"><text fill="#595959" font-family="Calibri,Calibri_MSFontService,sans-serif" font-weight="400" font-size="41" transform="matrix(1 0 0 1 1649.89 2125)">1500</text></g><g clip-path="url(#clip23)"><text fill="#595959" font-family="Calibri,Calibri_MSFontService,sans-serif" font-weight="400" font-size="41" transform="matrix(1 0 0 1 2096.01 2125)">2000</text></g><g clip-path="url(#clip24)"><text fill="#595959" font-family="Calibri,Calibri_MSFontService,sans-serif" font-weight="400" font-size="41" transform="matrix(1 0 0 1 2542.12 2125)">2500</text></g><g clip-path="url(#clip25)"><text fill="#595959" font-family="Calibri,Calibri_MSFontService,sans-serif" font-weight="400" font-size="41" transform="matrix(1 0 0 1 2988.24 2125)">3000</text></g><g clip-path="url(#clip26)"><text fill="#595959" font-family="Calibri,Calibri_MSFontService,sans-serif" font-weight="400" font-size="46" transform="matrix(6.12323e-17 -1 1 6.12323e-17 101.292 1229)">Runtime (ns)</text></g><g clip-path="url(#clip27)"><text fill="#595959" font-family="Calibri,Calibri_MSFontService,sans-serif" font-weight="400" font-size="46" transform="matrix(1 0 0 1 1366.12 2194)">Input Size (number of warehouses)</text></g><g clip-path="url(#clip28)"><text fill="#595959" font-family="Calibri,Calibri_MSFontService,sans-serif" font-weight="400" font-size="64" transform="matrix(1 0 0 1 1072.44 95)">run Time in nanoseconds by input size</text></g><rect x="0.499836" y="0.499836" width="3122" height="2264" stroke="#D9D9D9" stroke-width="3.4375" stroke-linejoin="round" stroke-miterlimit="10" fill="none"/></g></svg>